<mxfile host="app.diagrams.net" agent="Mozilla/5.0 (Windows NT 10.0; Win64; x64) AppleWebKit/537.36 (KHTML, like Gecko) Chrome/133.0.0.0 Safari/537.36 Edg/133.0.0.0" version="26.1.0">
  <diagram name="Page-1" id="Y6JCgyVT3AaMIpNjDqEN">
    <mxGraphModel dx="1473" dy="1536" grid="1" gridSize="10" guides="1" tooltips="1" connect="1" arrows="1" fold="1" page="1" pageScale="1" pageWidth="850" pageHeight="1100" math="0" shadow="0">
      <root>
        <mxCell id="0" />
        <mxCell id="1" parent="0" />
        <mxCell id="Fc47ScNQQL5bbz5lVI8A-1" value="" style="rounded=0;whiteSpace=wrap;html=1;" vertex="1" parent="1">
          <mxGeometry y="100" width="1700" height="100" as="geometry" />
        </mxCell>
        <mxCell id="Fc47ScNQQL5bbz5lVI8A-2" value="" style="rounded=0;whiteSpace=wrap;html=1;" vertex="1" parent="1">
          <mxGeometry y="200" width="1700" height="80" as="geometry" />
        </mxCell>
        <mxCell id="Fc47ScNQQL5bbz5lVI8A-4" value="" style="rounded=0;whiteSpace=wrap;html=1;" vertex="1" parent="1">
          <mxGeometry y="280" width="1700" height="490" as="geometry" />
        </mxCell>
        <mxCell id="Fc47ScNQQL5bbz5lVI8A-5" value="" style="rounded=0;whiteSpace=wrap;html=1;" vertex="1" parent="1">
          <mxGeometry y="770" width="1700" height="490" as="geometry" />
        </mxCell>
        <mxCell id="Fc47ScNQQL5bbz5lVI8A-7" value="" style="rounded=0;whiteSpace=wrap;html=1;" vertex="1" parent="1">
          <mxGeometry y="1750" width="1700" height="1090" as="geometry" />
        </mxCell>
        <mxCell id="Fc47ScNQQL5bbz5lVI8A-8" value="" style="rounded=0;whiteSpace=wrap;html=1;" vertex="1" parent="1">
          <mxGeometry x="20" y="125" width="110" height="50" as="geometry" />
        </mxCell>
        <mxCell id="Fc47ScNQQL5bbz5lVI8A-10" value="" style="rounded=0;whiteSpace=wrap;html=1;" vertex="1" parent="1">
          <mxGeometry x="180" y="125" width="110" height="50" as="geometry" />
        </mxCell>
        <mxCell id="Fc47ScNQQL5bbz5lVI8A-11" value="" style="rounded=0;whiteSpace=wrap;html=1;" vertex="1" parent="1">
          <mxGeometry x="350" y="125" width="110" height="50" as="geometry" />
        </mxCell>
        <mxCell id="Fc47ScNQQL5bbz5lVI8A-12" value="" style="rounded=0;whiteSpace=wrap;html=1;" vertex="1" parent="1">
          <mxGeometry x="520" y="125" width="110" height="50" as="geometry" />
        </mxCell>
        <mxCell id="Fc47ScNQQL5bbz5lVI8A-13" value="" style="rounded=0;whiteSpace=wrap;html=1;" vertex="1" parent="1">
          <mxGeometry x="690" y="125" width="110" height="50" as="geometry" />
        </mxCell>
        <mxCell id="Fc47ScNQQL5bbz5lVI8A-14" value="" style="rounded=0;whiteSpace=wrap;html=1;" vertex="1" parent="1">
          <mxGeometry x="860" y="125" width="110" height="50" as="geometry" />
        </mxCell>
        <mxCell id="Fc47ScNQQL5bbz5lVI8A-15" value="" style="rounded=0;whiteSpace=wrap;html=1;" vertex="1" parent="1">
          <mxGeometry x="1030" y="125" width="110" height="50" as="geometry" />
        </mxCell>
        <mxCell id="Fc47ScNQQL5bbz5lVI8A-16" value="" style="rounded=0;whiteSpace=wrap;html=1;" vertex="1" parent="1">
          <mxGeometry x="1200" y="125" width="110" height="50" as="geometry" />
        </mxCell>
        <mxCell id="Fc47ScNQQL5bbz5lVI8A-17" value="" style="rounded=0;whiteSpace=wrap;html=1;" vertex="1" parent="1">
          <mxGeometry x="1370" y="125" width="110" height="50" as="geometry" />
        </mxCell>
        <mxCell id="Fc47ScNQQL5bbz5lVI8A-18" value="" style="rounded=0;whiteSpace=wrap;html=1;" vertex="1" parent="1">
          <mxGeometry x="1540" y="125" width="110" height="50" as="geometry" />
        </mxCell>
        <mxCell id="Fc47ScNQQL5bbz5lVI8A-19" value="" style="rounded=0;whiteSpace=wrap;html=1;" vertex="1" parent="1">
          <mxGeometry x="60" y="335" width="1580" height="380" as="geometry" />
        </mxCell>
        <mxCell id="Fc47ScNQQL5bbz5lVI8A-20" value="" style="rounded=1;whiteSpace=wrap;html=1;" vertex="1" parent="1">
          <mxGeometry x="475" y="360" width="750" height="110" as="geometry" />
        </mxCell>
        <mxCell id="Fc47ScNQQL5bbz5lVI8A-21" value="" style="rounded=1;whiteSpace=wrap;html=1;" vertex="1" parent="1">
          <mxGeometry x="475" y="490" width="750" height="50" as="geometry" />
        </mxCell>
        <mxCell id="Fc47ScNQQL5bbz5lVI8A-23" value="" style="rounded=1;whiteSpace=wrap;html=1;" vertex="1" parent="1">
          <mxGeometry x="475" y="560" width="750" height="50" as="geometry" />
        </mxCell>
        <mxCell id="Fc47ScNQQL5bbz5lVI8A-24" value="" style="rounded=1;whiteSpace=wrap;html=1;" vertex="1" parent="1">
          <mxGeometry x="475" y="640" width="750" height="50" as="geometry" />
        </mxCell>
        <mxCell id="Fc47ScNQQL5bbz5lVI8A-34" value="" style="group" vertex="1" connectable="0" parent="1">
          <mxGeometry x="390" y="820" width="365" height="405" as="geometry" />
        </mxCell>
        <mxCell id="Fc47ScNQQL5bbz5lVI8A-26" value="" style="rounded=1;whiteSpace=wrap;html=1;" vertex="1" parent="Fc47ScNQQL5bbz5lVI8A-34">
          <mxGeometry width="365" height="405" as="geometry" />
        </mxCell>
        <mxCell id="Fc47ScNQQL5bbz5lVI8A-28" value="" style="rounded=1;whiteSpace=wrap;html=1;" vertex="1" parent="Fc47ScNQQL5bbz5lVI8A-34">
          <mxGeometry x="37.5" y="35" width="290" height="100" as="geometry" />
        </mxCell>
        <mxCell id="Fc47ScNQQL5bbz5lVI8A-29" value="" style="rounded=1;whiteSpace=wrap;html=1;" vertex="1" parent="Fc47ScNQQL5bbz5lVI8A-34">
          <mxGeometry x="37.5" y="155" width="290" height="40" as="geometry" />
        </mxCell>
        <mxCell id="Fc47ScNQQL5bbz5lVI8A-30" value="" style="rounded=1;whiteSpace=wrap;html=1;" vertex="1" parent="Fc47ScNQQL5bbz5lVI8A-34">
          <mxGeometry x="37.5" y="215" width="290" height="40" as="geometry" />
        </mxCell>
        <mxCell id="Fc47ScNQQL5bbz5lVI8A-31" value="" style="rounded=1;whiteSpace=wrap;html=1;" vertex="1" parent="Fc47ScNQQL5bbz5lVI8A-34">
          <mxGeometry x="37.5" y="275" width="290" height="40" as="geometry" />
        </mxCell>
        <mxCell id="Fc47ScNQQL5bbz5lVI8A-33" value="" style="rounded=1;whiteSpace=wrap;html=1;" vertex="1" parent="Fc47ScNQQL5bbz5lVI8A-34">
          <mxGeometry x="37.5" y="335" width="290" height="40" as="geometry" />
        </mxCell>
        <mxCell id="Fc47ScNQQL5bbz5lVI8A-42" value="" style="group" vertex="1" connectable="0" parent="1">
          <mxGeometry x="1040" y="820" width="365" height="405" as="geometry" />
        </mxCell>
        <mxCell id="Fc47ScNQQL5bbz5lVI8A-43" value="" style="rounded=1;whiteSpace=wrap;html=1;" vertex="1" parent="Fc47ScNQQL5bbz5lVI8A-42">
          <mxGeometry width="365" height="405" as="geometry" />
        </mxCell>
        <mxCell id="Fc47ScNQQL5bbz5lVI8A-44" value="" style="rounded=1;whiteSpace=wrap;html=1;" vertex="1" parent="Fc47ScNQQL5bbz5lVI8A-42">
          <mxGeometry x="37.5" y="35" width="290" height="100" as="geometry" />
        </mxCell>
        <mxCell id="Fc47ScNQQL5bbz5lVI8A-48" value="" style="rounded=1;whiteSpace=wrap;html=1;" vertex="1" parent="Fc47ScNQQL5bbz5lVI8A-42">
          <mxGeometry x="37.5" y="335" width="142.5" height="40" as="geometry" />
        </mxCell>
        <mxCell id="Fc47ScNQQL5bbz5lVI8A-53" value="" style="rounded=1;whiteSpace=wrap;html=1;" vertex="1" parent="Fc47ScNQQL5bbz5lVI8A-42">
          <mxGeometry x="37.5" y="152.5" width="290" height="167.5" as="geometry" />
        </mxCell>
        <mxCell id="Fc47ScNQQL5bbz5lVI8A-54" value="" style="rounded=0;whiteSpace=wrap;html=1;" vertex="1" parent="1">
          <mxGeometry y="1260" width="1700" height="490" as="geometry" />
        </mxCell>
        <mxCell id="Fc47ScNQQL5bbz5lVI8A-55" value="" style="group" vertex="1" connectable="0" parent="1">
          <mxGeometry x="390" y="1310" width="365" height="405" as="geometry" />
        </mxCell>
        <mxCell id="Fc47ScNQQL5bbz5lVI8A-56" value="" style="rounded=1;whiteSpace=wrap;html=1;" vertex="1" parent="Fc47ScNQQL5bbz5lVI8A-55">
          <mxGeometry width="365" height="405" as="geometry" />
        </mxCell>
        <mxCell id="Fc47ScNQQL5bbz5lVI8A-57" value="" style="rounded=1;whiteSpace=wrap;html=1;" vertex="1" parent="Fc47ScNQQL5bbz5lVI8A-55">
          <mxGeometry x="37.5" y="35" width="290" height="100" as="geometry" />
        </mxCell>
        <mxCell id="Fc47ScNQQL5bbz5lVI8A-58" value="" style="rounded=1;whiteSpace=wrap;html=1;" vertex="1" parent="Fc47ScNQQL5bbz5lVI8A-55">
          <mxGeometry x="37.5" y="155" width="290" height="40" as="geometry" />
        </mxCell>
        <mxCell id="Fc47ScNQQL5bbz5lVI8A-59" value="" style="rounded=1;whiteSpace=wrap;html=1;" vertex="1" parent="Fc47ScNQQL5bbz5lVI8A-55">
          <mxGeometry x="37.5" y="215" width="290" height="40" as="geometry" />
        </mxCell>
        <mxCell id="Fc47ScNQQL5bbz5lVI8A-60" value="" style="rounded=1;whiteSpace=wrap;html=1;" vertex="1" parent="Fc47ScNQQL5bbz5lVI8A-55">
          <mxGeometry x="37.5" y="275" width="290" height="40" as="geometry" />
        </mxCell>
        <mxCell id="Fc47ScNQQL5bbz5lVI8A-62" value="" style="group" vertex="1" connectable="0" parent="1">
          <mxGeometry x="1040" y="1310" width="365" height="405" as="geometry" />
        </mxCell>
        <mxCell id="Fc47ScNQQL5bbz5lVI8A-63" value="" style="rounded=1;whiteSpace=wrap;html=1;" vertex="1" parent="Fc47ScNQQL5bbz5lVI8A-62">
          <mxGeometry width="365" height="405" as="geometry" />
        </mxCell>
        <mxCell id="Fc47ScNQQL5bbz5lVI8A-64" value="" style="rounded=1;whiteSpace=wrap;html=1;" vertex="1" parent="Fc47ScNQQL5bbz5lVI8A-62">
          <mxGeometry x="37.5" y="35" width="290" height="100" as="geometry" />
        </mxCell>
        <mxCell id="Fc47ScNQQL5bbz5lVI8A-65" value="" style="rounded=1;whiteSpace=wrap;html=1;" vertex="1" parent="Fc47ScNQQL5bbz5lVI8A-62">
          <mxGeometry x="37.5" y="335" width="142.5" height="40" as="geometry" />
        </mxCell>
        <mxCell id="Fc47ScNQQL5bbz5lVI8A-66" value="" style="rounded=1;whiteSpace=wrap;html=1;" vertex="1" parent="Fc47ScNQQL5bbz5lVI8A-62">
          <mxGeometry x="37.5" y="152.5" width="290" height="167.5" as="geometry" />
        </mxCell>
        <mxCell id="Fc47ScNQQL5bbz5lVI8A-72" value="" style="rounded=1;whiteSpace=wrap;html=1;" vertex="1" parent="1">
          <mxGeometry x="230" y="1830" width="570" height="280" as="geometry" />
        </mxCell>
        <mxCell id="Fc47ScNQQL5bbz5lVI8A-74" value="" style="rounded=1;whiteSpace=wrap;html=1;" vertex="1" parent="1">
          <mxGeometry x="260" y="1860" width="510" height="60" as="geometry" />
        </mxCell>
        <mxCell id="Fc47ScNQQL5bbz5lVI8A-75" value="" style="rounded=1;whiteSpace=wrap;html=1;" vertex="1" parent="1">
          <mxGeometry x="260" y="1940" width="510" height="60" as="geometry" />
        </mxCell>
        <mxCell id="Fc47ScNQQL5bbz5lVI8A-76" value="" style="rounded=1;whiteSpace=wrap;html=1;" vertex="1" parent="1">
          <mxGeometry x="260" y="2020" width="510" height="60" as="geometry" />
        </mxCell>
        <mxCell id="Fc47ScNQQL5bbz5lVI8A-77" value="" style="rounded=1;whiteSpace=wrap;html=1;" vertex="1" parent="1">
          <mxGeometry x="890" y="1830" width="570" height="280" as="geometry" />
        </mxCell>
        <mxCell id="Fc47ScNQQL5bbz5lVI8A-78" value="" style="rounded=1;whiteSpace=wrap;html=1;" vertex="1" parent="1">
          <mxGeometry x="920" y="1860" width="510" height="60" as="geometry" />
        </mxCell>
        <mxCell id="Fc47ScNQQL5bbz5lVI8A-79" value="" style="rounded=1;whiteSpace=wrap;html=1;" vertex="1" parent="1">
          <mxGeometry x="920" y="1940" width="510" height="60" as="geometry" />
        </mxCell>
        <mxCell id="Fc47ScNQQL5bbz5lVI8A-80" value="" style="rounded=1;whiteSpace=wrap;html=1;" vertex="1" parent="1">
          <mxGeometry x="920" y="2020" width="510" height="60" as="geometry" />
        </mxCell>
        <mxCell id="Fc47ScNQQL5bbz5lVI8A-81" value="" style="rounded=1;whiteSpace=wrap;html=1;" vertex="1" parent="1">
          <mxGeometry x="240" y="2490" width="570" height="280" as="geometry" />
        </mxCell>
        <mxCell id="Fc47ScNQQL5bbz5lVI8A-82" value="" style="rounded=1;whiteSpace=wrap;html=1;" vertex="1" parent="1">
          <mxGeometry x="270" y="2520" width="510" height="60" as="geometry" />
        </mxCell>
        <mxCell id="Fc47ScNQQL5bbz5lVI8A-83" value="" style="rounded=1;whiteSpace=wrap;html=1;" vertex="1" parent="1">
          <mxGeometry x="270" y="2600" width="510" height="60" as="geometry" />
        </mxCell>
        <mxCell id="Fc47ScNQQL5bbz5lVI8A-84" value="" style="rounded=1;whiteSpace=wrap;html=1;" vertex="1" parent="1">
          <mxGeometry x="270" y="2680" width="510" height="60" as="geometry" />
        </mxCell>
        <mxCell id="Fc47ScNQQL5bbz5lVI8A-85" value="" style="rounded=1;whiteSpace=wrap;html=1;" vertex="1" parent="1">
          <mxGeometry x="900" y="2490" width="570" height="280" as="geometry" />
        </mxCell>
        <mxCell id="Fc47ScNQQL5bbz5lVI8A-86" value="" style="rounded=1;whiteSpace=wrap;html=1;" vertex="1" parent="1">
          <mxGeometry x="930" y="2520" width="510" height="60" as="geometry" />
        </mxCell>
        <mxCell id="Fc47ScNQQL5bbz5lVI8A-87" value="" style="rounded=1;whiteSpace=wrap;html=1;" vertex="1" parent="1">
          <mxGeometry x="930" y="2600" width="510" height="60" as="geometry" />
        </mxCell>
        <mxCell id="Fc47ScNQQL5bbz5lVI8A-88" value="" style="rounded=1;whiteSpace=wrap;html=1;" vertex="1" parent="1">
          <mxGeometry x="930" y="2680" width="510" height="60" as="geometry" />
        </mxCell>
        <mxCell id="Fc47ScNQQL5bbz5lVI8A-89" value="" style="rounded=1;whiteSpace=wrap;html=1;" vertex="1" parent="1">
          <mxGeometry x="235" y="2160" width="570" height="280" as="geometry" />
        </mxCell>
        <mxCell id="Fc47ScNQQL5bbz5lVI8A-90" value="" style="rounded=1;whiteSpace=wrap;html=1;" vertex="1" parent="1">
          <mxGeometry x="265" y="2190" width="510" height="60" as="geometry" />
        </mxCell>
        <mxCell id="Fc47ScNQQL5bbz5lVI8A-91" value="" style="rounded=1;whiteSpace=wrap;html=1;" vertex="1" parent="1">
          <mxGeometry x="265" y="2270" width="510" height="60" as="geometry" />
        </mxCell>
        <mxCell id="Fc47ScNQQL5bbz5lVI8A-92" value="" style="rounded=1;whiteSpace=wrap;html=1;" vertex="1" parent="1">
          <mxGeometry x="265" y="2350" width="510" height="60" as="geometry" />
        </mxCell>
        <mxCell id="Fc47ScNQQL5bbz5lVI8A-93" value="" style="rounded=1;whiteSpace=wrap;html=1;" vertex="1" parent="1">
          <mxGeometry x="895" y="2160" width="570" height="280" as="geometry" />
        </mxCell>
        <mxCell id="Fc47ScNQQL5bbz5lVI8A-94" value="" style="rounded=1;whiteSpace=wrap;html=1;" vertex="1" parent="1">
          <mxGeometry x="925" y="2190" width="510" height="60" as="geometry" />
        </mxCell>
        <mxCell id="Fc47ScNQQL5bbz5lVI8A-95" value="" style="rounded=1;whiteSpace=wrap;html=1;" vertex="1" parent="1">
          <mxGeometry x="925" y="2270" width="510" height="60" as="geometry" />
        </mxCell>
        <mxCell id="Fc47ScNQQL5bbz5lVI8A-96" value="" style="rounded=1;whiteSpace=wrap;html=1;" vertex="1" parent="1">
          <mxGeometry x="925" y="2350" width="510" height="60" as="geometry" />
        </mxCell>
        <mxCell id="Fc47ScNQQL5bbz5lVI8A-97" value="" style="rounded=0;whiteSpace=wrap;html=1;" vertex="1" parent="1">
          <mxGeometry y="2840" width="1700" height="2020" as="geometry" />
        </mxCell>
        <mxCell id="Fc47ScNQQL5bbz5lVI8A-99" value="" style="rounded=1;whiteSpace=wrap;html=1;" vertex="1" parent="1">
          <mxGeometry x="240" y="2890" width="570" height="110" as="geometry" />
        </mxCell>
        <mxCell id="Fc47ScNQQL5bbz5lVI8A-101" value="" style="rounded=1;whiteSpace=wrap;html=1;" vertex="1" parent="1">
          <mxGeometry x="240" y="3080" width="250" height="110" as="geometry" />
        </mxCell>
        <mxCell id="Fc47ScNQQL5bbz5lVI8A-102" value="" style="rounded=1;whiteSpace=wrap;html=1;" vertex="1" parent="1">
          <mxGeometry x="560" y="3080" width="250" height="110" as="geometry" />
        </mxCell>
        <mxCell id="Fc47ScNQQL5bbz5lVI8A-105" value="" style="rounded=1;whiteSpace=wrap;html=1;" vertex="1" parent="1">
          <mxGeometry x="235" y="3250" width="250" height="110" as="geometry" />
        </mxCell>
        <mxCell id="Fc47ScNQQL5bbz5lVI8A-106" value="" style="rounded=1;whiteSpace=wrap;html=1;" vertex="1" parent="1">
          <mxGeometry x="555" y="3250" width="250" height="110" as="geometry" />
        </mxCell>
        <mxCell id="Fc47ScNQQL5bbz5lVI8A-107" value="" style="rounded=1;whiteSpace=wrap;html=1;" vertex="1" parent="1">
          <mxGeometry x="242.5" y="3430" width="250" height="110" as="geometry" />
        </mxCell>
        <mxCell id="Fc47ScNQQL5bbz5lVI8A-108" value="" style="rounded=1;whiteSpace=wrap;html=1;" vertex="1" parent="1">
          <mxGeometry x="562.5" y="3430" width="250" height="110" as="geometry" />
        </mxCell>
        <mxCell id="Fc47ScNQQL5bbz5lVI8A-109" value="" style="rounded=1;whiteSpace=wrap;html=1;" vertex="1" parent="1">
          <mxGeometry x="237.5" y="3600" width="250" height="110" as="geometry" />
        </mxCell>
        <mxCell id="Fc47ScNQQL5bbz5lVI8A-110" value="" style="rounded=1;whiteSpace=wrap;html=1;" vertex="1" parent="1">
          <mxGeometry x="557.5" y="3600" width="250" height="110" as="geometry" />
        </mxCell>
        <mxCell id="Fc47ScNQQL5bbz5lVI8A-111" value="" style="rounded=1;whiteSpace=wrap;html=1;" vertex="1" parent="1">
          <mxGeometry x="237.5" y="3780" width="250" height="110" as="geometry" />
        </mxCell>
        <mxCell id="Fc47ScNQQL5bbz5lVI8A-112" value="" style="rounded=1;whiteSpace=wrap;html=1;" vertex="1" parent="1">
          <mxGeometry x="557.5" y="3780" width="250" height="110" as="geometry" />
        </mxCell>
        <mxCell id="Fc47ScNQQL5bbz5lVI8A-113" value="" style="rounded=1;whiteSpace=wrap;html=1;" vertex="1" parent="1">
          <mxGeometry x="232.5" y="3950" width="250" height="110" as="geometry" />
        </mxCell>
        <mxCell id="Fc47ScNQQL5bbz5lVI8A-114" value="" style="rounded=1;whiteSpace=wrap;html=1;" vertex="1" parent="1">
          <mxGeometry x="552.5" y="3950" width="250" height="110" as="geometry" />
        </mxCell>
        <mxCell id="Fc47ScNQQL5bbz5lVI8A-115" value="" style="rounded=1;whiteSpace=wrap;html=1;" vertex="1" parent="1">
          <mxGeometry x="237.5" y="4140" width="250" height="110" as="geometry" />
        </mxCell>
        <mxCell id="Fc47ScNQQL5bbz5lVI8A-116" value="" style="rounded=1;whiteSpace=wrap;html=1;" vertex="1" parent="1">
          <mxGeometry x="557.5" y="4140" width="250" height="110" as="geometry" />
        </mxCell>
        <mxCell id="Fc47ScNQQL5bbz5lVI8A-117" value="" style="rounded=1;whiteSpace=wrap;html=1;" vertex="1" parent="1">
          <mxGeometry x="232.5" y="4310" width="250" height="110" as="geometry" />
        </mxCell>
        <mxCell id="Fc47ScNQQL5bbz5lVI8A-118" value="" style="rounded=1;whiteSpace=wrap;html=1;" vertex="1" parent="1">
          <mxGeometry x="552.5" y="4310" width="250" height="110" as="geometry" />
        </mxCell>
        <mxCell id="Fc47ScNQQL5bbz5lVI8A-119" value="" style="rounded=1;whiteSpace=wrap;html=1;" vertex="1" parent="1">
          <mxGeometry x="240" y="4500" width="250" height="110" as="geometry" />
        </mxCell>
        <mxCell id="Fc47ScNQQL5bbz5lVI8A-120" value="" style="rounded=1;whiteSpace=wrap;html=1;" vertex="1" parent="1">
          <mxGeometry x="560" y="4500" width="250" height="110" as="geometry" />
        </mxCell>
        <mxCell id="Fc47ScNQQL5bbz5lVI8A-121" value="" style="rounded=1;whiteSpace=wrap;html=1;" vertex="1" parent="1">
          <mxGeometry x="240" y="4690" width="570" height="110" as="geometry" />
        </mxCell>
        <mxCell id="Fc47ScNQQL5bbz5lVI8A-122" value="" style="rounded=1;whiteSpace=wrap;html=1;" vertex="1" parent="1">
          <mxGeometry x="917.5" y="2895" width="570" height="110" as="geometry" />
        </mxCell>
        <mxCell id="Fc47ScNQQL5bbz5lVI8A-123" value="" style="rounded=1;whiteSpace=wrap;html=1;" vertex="1" parent="1">
          <mxGeometry x="917.5" y="3085" width="250" height="110" as="geometry" />
        </mxCell>
        <mxCell id="Fc47ScNQQL5bbz5lVI8A-124" value="" style="rounded=1;whiteSpace=wrap;html=1;" vertex="1" parent="1">
          <mxGeometry x="1237.5" y="3085" width="250" height="110" as="geometry" />
        </mxCell>
        <mxCell id="Fc47ScNQQL5bbz5lVI8A-125" value="" style="rounded=1;whiteSpace=wrap;html=1;" vertex="1" parent="1">
          <mxGeometry x="912.5" y="3255" width="250" height="110" as="geometry" />
        </mxCell>
        <mxCell id="Fc47ScNQQL5bbz5lVI8A-126" value="" style="rounded=1;whiteSpace=wrap;html=1;" vertex="1" parent="1">
          <mxGeometry x="1232.5" y="3255" width="250" height="110" as="geometry" />
        </mxCell>
        <mxCell id="Fc47ScNQQL5bbz5lVI8A-127" value="" style="rounded=1;whiteSpace=wrap;html=1;" vertex="1" parent="1">
          <mxGeometry x="920" y="3435" width="250" height="110" as="geometry" />
        </mxCell>
        <mxCell id="Fc47ScNQQL5bbz5lVI8A-128" value="" style="rounded=1;whiteSpace=wrap;html=1;" vertex="1" parent="1">
          <mxGeometry x="1240" y="3435" width="250" height="110" as="geometry" />
        </mxCell>
        <mxCell id="Fc47ScNQQL5bbz5lVI8A-129" value="" style="rounded=1;whiteSpace=wrap;html=1;" vertex="1" parent="1">
          <mxGeometry x="915" y="3605" width="250" height="110" as="geometry" />
        </mxCell>
        <mxCell id="Fc47ScNQQL5bbz5lVI8A-130" value="" style="rounded=1;whiteSpace=wrap;html=1;" vertex="1" parent="1">
          <mxGeometry x="1235" y="3605" width="250" height="110" as="geometry" />
        </mxCell>
        <mxCell id="Fc47ScNQQL5bbz5lVI8A-131" value="" style="rounded=1;whiteSpace=wrap;html=1;" vertex="1" parent="1">
          <mxGeometry x="915" y="3785" width="250" height="110" as="geometry" />
        </mxCell>
        <mxCell id="Fc47ScNQQL5bbz5lVI8A-132" value="" style="rounded=1;whiteSpace=wrap;html=1;" vertex="1" parent="1">
          <mxGeometry x="1235" y="3785" width="250" height="110" as="geometry" />
        </mxCell>
        <mxCell id="Fc47ScNQQL5bbz5lVI8A-133" value="" style="rounded=1;whiteSpace=wrap;html=1;" vertex="1" parent="1">
          <mxGeometry x="910" y="3955" width="250" height="110" as="geometry" />
        </mxCell>
        <mxCell id="Fc47ScNQQL5bbz5lVI8A-134" value="" style="rounded=1;whiteSpace=wrap;html=1;" vertex="1" parent="1">
          <mxGeometry x="1230" y="3955" width="250" height="110" as="geometry" />
        </mxCell>
        <mxCell id="Fc47ScNQQL5bbz5lVI8A-135" value="" style="rounded=1;whiteSpace=wrap;html=1;" vertex="1" parent="1">
          <mxGeometry x="915" y="4145" width="250" height="110" as="geometry" />
        </mxCell>
        <mxCell id="Fc47ScNQQL5bbz5lVI8A-136" value="" style="rounded=1;whiteSpace=wrap;html=1;" vertex="1" parent="1">
          <mxGeometry x="1235" y="4145" width="250" height="110" as="geometry" />
        </mxCell>
        <mxCell id="Fc47ScNQQL5bbz5lVI8A-137" value="" style="rounded=1;whiteSpace=wrap;html=1;" vertex="1" parent="1">
          <mxGeometry x="910" y="4315" width="250" height="110" as="geometry" />
        </mxCell>
        <mxCell id="Fc47ScNQQL5bbz5lVI8A-138" value="" style="rounded=1;whiteSpace=wrap;html=1;" vertex="1" parent="1">
          <mxGeometry x="1230" y="4315" width="250" height="110" as="geometry" />
        </mxCell>
        <mxCell id="Fc47ScNQQL5bbz5lVI8A-139" value="" style="rounded=1;whiteSpace=wrap;html=1;" vertex="1" parent="1">
          <mxGeometry x="917.5" y="4505" width="250" height="110" as="geometry" />
        </mxCell>
        <mxCell id="Fc47ScNQQL5bbz5lVI8A-140" value="" style="rounded=1;whiteSpace=wrap;html=1;" vertex="1" parent="1">
          <mxGeometry x="1237.5" y="4505" width="250" height="110" as="geometry" />
        </mxCell>
        <mxCell id="Fc47ScNQQL5bbz5lVI8A-141" value="" style="rounded=1;whiteSpace=wrap;html=1;" vertex="1" parent="1">
          <mxGeometry x="917.5" y="4695" width="570" height="110" as="geometry" />
        </mxCell>
        <mxCell id="Fc47ScNQQL5bbz5lVI8A-142" value="" style="rounded=0;whiteSpace=wrap;html=1;" vertex="1" parent="1">
          <mxGeometry y="4860" width="1700" height="950" as="geometry" />
        </mxCell>
        <mxCell id="Fc47ScNQQL5bbz5lVI8A-143" value="" style="rounded=1;whiteSpace=wrap;html=1;" vertex="1" parent="1">
          <mxGeometry x="75" y="4890" width="1550" height="120" as="geometry" />
        </mxCell>
        <mxCell id="Fc47ScNQQL5bbz5lVI8A-144" value="" style="rounded=1;whiteSpace=wrap;html=1;" vertex="1" parent="1">
          <mxGeometry x="75" y="5050" width="1550" height="260" as="geometry" />
        </mxCell>
        <mxCell id="Fc47ScNQQL5bbz5lVI8A-145" value="" style="rounded=1;whiteSpace=wrap;html=1;" vertex="1" parent="1">
          <mxGeometry x="75" y="5350" width="1550" height="100" as="geometry" />
        </mxCell>
        <mxCell id="Fc47ScNQQL5bbz5lVI8A-146" value="" style="rounded=1;whiteSpace=wrap;html=1;" vertex="1" parent="1">
          <mxGeometry x="75" y="5500" width="1550" height="260" as="geometry" />
        </mxCell>
        <mxCell id="Fc47ScNQQL5bbz5lVI8A-147" value="" style="rounded=1;whiteSpace=wrap;html=1;" vertex="1" parent="1">
          <mxGeometry x="130" y="5095" width="250" height="170" as="geometry" />
        </mxCell>
        <mxCell id="Fc47ScNQQL5bbz5lVI8A-148" value="" style="rounded=1;whiteSpace=wrap;html=1;" vertex="1" parent="1">
          <mxGeometry x="505" y="5095" width="250" height="170" as="geometry" />
        </mxCell>
        <mxCell id="Fc47ScNQQL5bbz5lVI8A-149" value="" style="rounded=1;whiteSpace=wrap;html=1;" vertex="1" parent="1">
          <mxGeometry x="1320" y="5095" width="250" height="170" as="geometry" />
        </mxCell>
        <mxCell id="Fc47ScNQQL5bbz5lVI8A-150" value="" style="rounded=1;whiteSpace=wrap;html=1;" vertex="1" parent="1">
          <mxGeometry x="960" y="5095" width="250" height="170" as="geometry" />
        </mxCell>
        <mxCell id="Fc47ScNQQL5bbz5lVI8A-151" value="" style="rounded=1;whiteSpace=wrap;html=1;" vertex="1" parent="1">
          <mxGeometry x="123" y="4920" width="120" height="60" as="geometry" />
        </mxCell>
        <mxCell id="Fc47ScNQQL5bbz5lVI8A-152" value="" style="rounded=1;whiteSpace=wrap;html=1;" vertex="1" parent="1">
          <mxGeometry x="320" y="4920" width="120" height="60" as="geometry" />
        </mxCell>
        <mxCell id="Fc47ScNQQL5bbz5lVI8A-153" value="" style="rounded=1;whiteSpace=wrap;html=1;" vertex="1" parent="1">
          <mxGeometry x="515" y="4920" width="120" height="60" as="geometry" />
        </mxCell>
        <mxCell id="Fc47ScNQQL5bbz5lVI8A-154" value="" style="rounded=1;whiteSpace=wrap;html=1;" vertex="1" parent="1">
          <mxGeometry x="710" y="4920" width="120" height="60" as="geometry" />
        </mxCell>
        <mxCell id="Fc47ScNQQL5bbz5lVI8A-155" value="" style="rounded=1;whiteSpace=wrap;html=1;" vertex="1" parent="1">
          <mxGeometry x="900" y="4920" width="120" height="60" as="geometry" />
        </mxCell>
        <mxCell id="Fc47ScNQQL5bbz5lVI8A-156" value="" style="rounded=1;whiteSpace=wrap;html=1;" vertex="1" parent="1">
          <mxGeometry x="1090" y="4920" width="120" height="60" as="geometry" />
        </mxCell>
        <mxCell id="Fc47ScNQQL5bbz5lVI8A-157" value="" style="rounded=1;whiteSpace=wrap;html=1;" vertex="1" parent="1">
          <mxGeometry x="1280" y="4920" width="120" height="60" as="geometry" />
        </mxCell>
      </root>
    </mxGraphModel>
  </diagram>
</mxfile>
